<svg xmlns="http://www.w3.org/2000/svg" viewBox="0 0 32 32"><defs><style>.cls-1{fill:#44d62c;}</style></defs><title>icon</title><g id="Layer_2" data-name="Layer 2"><path class="cls-1" d="M21.52,23.78l-11,0a.94.94,0,0,1-.94-1l0-11.89c0-3.62.3-4.77,6.48-4.76s6.47,1.15,6.46,4.78l0,11.89A.94.94,0,0,1,21.52,23.78ZM10.58,22.71H21.42l0-11.78c0-3.15,0-3.72-5.42-3.73s-5.41.56-5.42,3.71Z"/><path class="cls-1" d="M16,13.05c-4.23,0-6.37-1.43-6.36-4.24a.53.53,0,1,1,1.05,0c0,.79,0,3.18,5.31,3.19s5.31-2.39,5.31-3.18a.53.53,0,0,1,1.06,0C22.38,11.64,20.24,13.06,16,13.05Z"/><path class="cls-1" d="M19.37,21.62H12.46a1.18,1.18,0,0,1-1.17-1.17V15.12a.52.52,0,0,1,.53-.52H20a.53.53,0,0,1,.53.53v5.31A1.17,1.17,0,0,1,19.37,21.62Zm-7-6v4.79a.11.11,0,0,0,.11.12h6.91a.11.11,0,0,0,.11-.12V15.66Z"/><path class="cls-1" d="M20,18.26H11.82a.53.53,0,0,1,0-1.06H20a.53.53,0,0,1,0,1.06Z"/><path class="cls-1" d="M18.56,19.31a.53.53,0,0,1-.53-.53V17.73a.53.53,0,0,1,1.06,0v1.05A.53.53,0,0,1,18.56,19.31Z"/><path class="cls-1" d="M20,13.59a.53.53,0,0,1-.53-.53V12a.53.53,0,0,1,1.05,0v1.05A.53.53,0,0,1,20,13.59Z"/><path class="cls-1" d="M10.06,21.61H7.5a.55.55,0,0,1-.38-.16A.53.53,0,0,1,7,21l.38-5.49a1,1,0,0,1,1-1h1.66a.53.53,0,0,1,.53.53v6A.53.53,0,0,1,10.06,21.61Zm-2-1.06H9.53v-4.9H8.41Z"/><path class="cls-1" d="M24.5,21.63H22a.53.53,0,0,1-.53-.53v-6a.53.53,0,0,1,.53-.53h1.66a1.06,1.06,0,0,1,1.05,1L25,21.07a.51.51,0,0,1-.14.39A.52.52,0,0,1,24.5,21.63Zm-2-1.06h1.46l-.33-4.92H22.49Z"/><path class="cls-1" d="M16,30A14,14,0,1,1,30,16,14,14,0,0,1,16,30ZM16,3.06A12.93,12.93,0,1,0,29,16,13,13,0,0,0,16,3.06Z"/></g></svg>