<svg id="Layer_1" data-name="Layer 1" xmlns="http://www.w3.org/2000/svg" viewBox="0 0 498 498"><defs><style>.cls-1{fill:#888;}</style></defs><title>blade-15-grey</title><g id="Layer_2" data-name="Layer 2"><path class="cls-1" d="M252.4,501.7c-137.3,0-249-111.7-249-249s111.7-249,249-249,249,111.7,249,249S389.7,501.7,252.4,501.7Zm0-479.3c-127,0-230.3,103.3-230.3,230.3S125.4,483,252.4,483,482.6,379.7,482.6,252.8,379.4,22.5,252.4,22.4Z" transform="translate(-3.4 -3.7)"/><path class="cls-1" d="M377.5,308.3H127.3a8.706,8.706,0,0,1-8.7-8.7h0V147.3A17.349,17.349,0,0,1,135.8,130H369a17.285,17.285,0,0,1,17.2,17.3V299.5a8.792,8.792,0,0,1-8.7,8.8ZM136,290.8H368.7V147.6h-233Z" transform="translate(-3.4 -3.7)"/><path class="cls-1" d="M389.5,375.3H115a17.652,17.652,0,0,1-17.8-17.2V338.7a8.706,8.706,0,0,1,8.7-8.7H398.5a8.706,8.706,0,0,1,8.7,8.7h0v19.4a17.309,17.309,0,0,1-17.7,17.2ZM114.7,347.4v10.7l274.8-.3.2-10.5h-275Z" transform="translate(-3.4 -3.7)"/><path class="cls-1" d="M106,347.4a8.782,8.782,0,0,1-7.7-12.9h0l22.8-41.4a8.733,8.733,0,0,1,15.3,8.4l-22.8,41.4A8.751,8.751,0,0,1,106,347.4Z" transform="translate(-3.4 -3.7)"/><path class="cls-1" d="M398.7,347.4a8.826,8.826,0,0,1-7.7-4.5l-22.8-41.4a8.771,8.771,0,1,1,15.4-8.4l22.8,41.4a8.64,8.64,0,0,1-3.5,11.8h0A8.481,8.481,0,0,1,398.7,347.4Z" transform="translate(-3.4 -3.7)"/></g></svg>