<svg xmlns="http://www.w3.org/2000/svg" viewBox="0 0 26.94 27.17"><defs><style>.cls-1{fill:#7e7e7e;}.cls-2{fill:#7e7e7e;}</style></defs><title>icon-opto-mechanical</title><g id="Layer_1" data-name="Layer 1"><path class="cls-1" d="M13.46,26.79A13.26,13.26,0,1,1,26.72,13.54,13.27,13.27,0,0,1,13.46,26.79Zm0-25.51A12.26,12.26,0,1,0,25.72,13.54,12.27,12.27,0,0,0,13.46,1.28Z"/><path class="cls-2" d="M13.46,26.79A13.26,13.26,0,1,1,26.72,13.54,13.27,13.27,0,0,1,13.46,26.79Zm0-25.51A12.26,12.26,0,1,0,25.72,13.54,12.27,12.27,0,0,0,13.46,1.28Z"/><path class="cls-2" d="M21.13,12.09H20.5V7.63A1.14,1.14,0,0,0,19.37,6.5H14.91V5.86h4.46a1.77,1.77,0,0,1,1.76,1.77Z"/><path class="cls-2" d="M6.42,12.09H5.79V7.63A1.77,1.77,0,0,1,7.55,5.86H12V6.5H7.55A1.14,1.14,0,0,0,6.42,7.63Z"/><path class="cls-2" d="M12,21.21H7.55a1.76,1.76,0,0,1-1.76-1.77V15h.63v4.46a1.13,1.13,0,0,0,1.13,1.13H12Z"/><path class="cls-2" d="M19.37,21.21H14.91v-.64h4.46a1.13,1.13,0,0,0,1.13-1.13V15h.63v4.46A1.76,1.76,0,0,1,19.37,21.21Z"/><polygon class="cls-2" points="13.09 12.17 13.46 7.42 13.83 12.17 15.52 9.97 14.46 12.54 17.78 11.04 14.83 13.17 22.82 13.54 14.83 13.9 17.78 16.03 14.46 14.54 15.52 17.1 13.83 14.9 13.46 19.66 13.09 14.9 11.4 17.1 12.46 14.54 9.14 16.03 12.09 13.9 4.1 13.54 12.09 13.17 9.14 11.04 12.46 12.54 11.4 9.97 13.09 12.17"/></g></svg>