<svg id="Layer_2" data-name="Layer 2" xmlns="http://www.w3.org/2000/svg" viewBox="0 0 500 500"><defs><style>.cls-1{fill:#7E7E7E;}</style></defs><title>icons</title><path class="cls-1" d="M249.31,500.25c-137.86,0-250-112.14-250-250s112.14-250,250-250,250,112.15,250,250S387.17,500.25,249.31,500.25Zm0-481.12c-127.45,0-231.14,103.69-231.14,231.14S121.86,481.39,249.31,481.39,480.45,377.71,480.45,250.27,376.76,19.13,249.31,19.13Z"/><path class="cls-1" d="M355.61,125.29a9.48,9.48,0,0,1-5.21-1.56,184.86,184.86,0,0,0-200.94-1.58,9.45,9.45,0,1,1-10.16-15.94,203.84,203.84,0,0,1,221.51,1.73A9.46,9.46,0,0,1,355.61,125.29Z"/><path class="cls-1" d="M312.42,177.56a9.48,9.48,0,0,1-5.21-1.56,105.48,105.48,0,0,0-114.54-.94,9.46,9.46,0,1,1-10.16-16,124.44,124.44,0,0,1,135.12,1.11A9.46,9.46,0,0,1,312.42,177.56Z"/><path class="cls-1" d="M267,269.35a9.45,9.45,0,0,1-9-6.72l-14.79-.37c-0.87.06-.94-0.14-1-0.53a9.45,9.45,0,0,1-18.73-1.84c0-9.28,8.64-16.55,19.69-16.55h13.63c11,0,19.67,7.27,19.67,16.55A9.45,9.45,0,0,1,267,269.35Z"/><path class="cls-1" d="M250,402.26a9.45,9.45,0,0,1-9.46-9.46V336a9.46,9.46,0,0,1,18.91,0V392.8A9.45,9.45,0,0,1,250,402.26Z"/><path class="cls-1" d="M362.51,472.09a9.34,9.34,0,0,1-4.71-1.27,9.45,9.45,0,0,1-4.71-7.86,484.16,484.16,0,0,0-6.52-66.26c-4.75-30.35-8.21-52.37,2.76-121.83-6.74-8.13-43.87-27.08-71.17-35.52v83c0,9.75-9.17,17.39-20.89,17.39H242c-11.71,0-20.9-7.63-20.9-17.39v-83c-27.29,8.43-64.41,27.38-71.15,35.51,11,69.42,7.53,91.44,2.78,121.81A481.54,481.54,0,0,0,146.21,463a9.45,9.45,0,0,1-13.87,8A249.63,249.63,0,0,1-.35,250.27c0-137.85,112.14-250,250-250s250,112.15,250,250A249.65,249.65,0,0,1,366.95,471,9.49,9.49,0,0,1,362.51,472.09Zm-93.78-253.7h3a9,9,0,0,1,2.17.26c14.72,3.49,97.87,32.75,94.39,56.89-10.94,68.38-7.66,89.3-3.13,118.26a503.6,503.6,0,0,1,6,53A230.77,230.77,0,0,0,480.79,250.27c0-127.45-103.69-231.14-231.14-231.14S18.51,122.82,18.51,250.27A230.71,230.71,0,0,0,128.07,446.78a499.91,499.91,0,0,1,6-53c4.53-29,7.81-49.87-3.11-118.09-3.5-24.3,79.66-53.55,94.37-57a9,9,0,0,1,2.17-.26h3a9.42,9.42,0,0,1,9.43,9.43v92.79a6.22,6.22,0,0,0,2,.32h15.27a6.48,6.48,0,0,0,2-.31v-92.8A9.42,9.42,0,0,1,268.73,218.39Z"/></svg>