<svg id="Layer_2" data-name="Layer 2" xmlns="http://www.w3.org/2000/svg" viewBox="0 0 500 500"><defs><style>.cls-1{fill:#7E7E7E;}</style></defs><title>icons</title><path class="cls-1" d="M86.11,439A249.62,249.62,0,0,1,1.18,251.45C1.18,113.92,113.07,2,250.59,2S500,113.92,500,251.45a249.69,249.69,0,0,1-83.75,186.44l-12.5-14.06a230.91,230.91,0,0,0,77.43-172.38c0-127.15-103.44-230.59-230.59-230.59S20,124.3,20,251.45A230.8,230.8,0,0,0,98.53,424.82Z"/><path class="cls-1" d="M154.09,481.52a9.47,9.47,0,0,1-3.92-.85A246.82,246.82,0,0,1,8.72,293.35,9.41,9.41,0,0,1,13,284a121.49,121.49,0,0,1,34.91-15.15,123.67,123.67,0,0,1,30.81-4c67.26,0,122.79,104.34,122.79,122.79a122.35,122.35,0,0,1-16.53,61.34,123.53,123.53,0,0,1-24.6,30.2A9.39,9.39,0,0,1,154.09,481.52ZM28.36,296.71A228,228,0,0,0,152.3,460.84a104.71,104.71,0,0,0,16.36-21.35,103.5,103.5,0,0,0,14-51.9c-1.43-12.69-49-104-104-104a104.36,104.36,0,0,0-26.1,3.46A102.74,102.74,0,0,0,28.36,296.71Z"/><path class="cls-1" d="M350.08,481.52a9.39,9.39,0,0,1-6.27-2.39,123,123,0,0,1-41.12-91.54c0-18.46,55.53-122.79,122.79-122.79a123.67,123.67,0,0,1,30.81,4A122.26,122.26,0,0,1,491.22,284a9.42,9.42,0,0,1,4.26,9.38A247,247,0,0,1,354,480.66,9.47,9.47,0,0,1,350.08,481.52Zm75.4-197.9c-55,0-102.54,91.28-104,104.25a103.29,103.29,0,0,0,14,51.61,104.52,104.52,0,0,0,16.36,21.36,228.1,228.1,0,0,0,124-164.12A106.32,106.32,0,0,0,425.48,283.62Z"/><path class="cls-1" d="M115.3,115.38l-13.46-13.16a207.71,207.71,0,0,1,295.44-1.69L384,113.84A188.9,188.9,0,0,0,115.3,115.38Z"/><path class="cls-1" d="M175.78,427.77c-69.71-119.2-128-140.91-128.63-141.11l6.09-17.81C55.86,269.73,118.16,292,192,418.26Z"/><path class="cls-1" d="M329.32,427.77l-16.25-9.5C386.94,292,449.24,269.73,451.86,268.85l6,17.83-3-8.92,3.08,8.9C457.37,286.86,399,308.57,329.32,427.77Z"/><path class="cls-1" d="M270.51,260.39H228.83V169l7.06-11.1-4.36-32.67,5.65-3.07v-0.65c0-6.75,8.67-10.27,12.36-10.29h0a16.19,16.19,0,0,1,9.94,4.36,8.23,8.23,0,0,1,2.66,5.91v0.66l5.65,3.05-4.36,32.69,7.06,11.1v91.4Zm-31.74-9.95h21.79V171.89l-7.45-11.71L257,130.7l-5.54-3,0.67-5.34a7.88,7.88,0,0,0-2.63-1.2,9.07,9.07,0,0,0-2.41,1.22v1.3l0.6,3.51-5.44,3.5,3.93,29.47-7.45,11.71v78.55Z"/><rect class="cls-1" x="235.3" y="183.08" width="28.75" height="9.95"/><rect class="cls-1" x="235.3" y="202.9" width="28.75" height="9.95"/><path class="cls-1" d="M249.68,331.69a132.9,132.9,0,0,1-27.47-2.89l-3.94-.84V261.22A10.29,10.29,0,0,1,228.51,251h42.31a10.27,10.27,0,0,1,10.26,10.26V328l-3.94.84A132.84,132.84,0,0,1,249.68,331.69Zm-21.45-11.85a122.16,122.16,0,0,0,42.9,0V261.21l-42.6-.31Z"/><rect class="cls-1" x="242.65" y="327.4" width="17.91" height="167.22"/></svg>