<svg id="Layer_2" data-name="Layer 2" xmlns="http://www.w3.org/2000/svg" viewBox="0 0 500 500"><defs><style>.cls-1{fill:#7E7E7E;}</style></defs><title>icons</title><path class="cls-1" d="M85.13,446.91A250.21,250.21,0,0,1,0,259C0,121.11,112.15,9,250,9S500,121.11,500,259a250.29,250.29,0,0,1-83.95,186.88l-12.53-14.1A231.46,231.46,0,0,0,481.13,259C481.13,131.51,377.45,27.83,250,27.83S18.87,131.51,18.87,259A231.35,231.35,0,0,0,97.58,432.74Z"/><path class="cls-1" d="M153.27,489.58a9.49,9.49,0,0,1-3.93-.86A247.41,247.41,0,0,1,7.55,301a9.43,9.43,0,0,1,4.26-9.39,121.78,121.78,0,0,1,35-15.18,124,124,0,0,1,30.88-4.05c67.42,0,123.08,104.58,123.08,123.08a122.64,122.64,0,0,1-16.56,61.49,123.82,123.82,0,0,1-24.65,30.27A9.41,9.41,0,0,1,153.27,489.58Zm-126-185.24A228.55,228.55,0,0,0,151.48,468.85a105,105,0,0,0,16.4-21.4,103.75,103.75,0,0,0,14-52C180.46,382.7,132.81,291.2,77.68,291.2a104.61,104.61,0,0,0-26.16,3.46A103,103,0,0,0,27.24,304.33Z"/><path class="cls-1" d="M349.72,489.58a9.41,9.41,0,0,1-6.28-2.4,123.32,123.32,0,0,1-41.22-91.76c0-18.5,55.66-123.08,123.08-123.08a124,124,0,0,1,30.88,4.05,122.55,122.55,0,0,1,35,15.17,9.44,9.44,0,0,1,4.27,9.41A247.58,247.58,0,0,1,353.65,488.72,9.49,9.49,0,0,1,349.72,489.58ZM425.3,291.2c-55.13,0-102.78,91.49-104.23,104.5a103.54,103.54,0,0,0,14,51.73,104.77,104.77,0,0,0,16.4,21.41,228.64,228.64,0,0,0,124.26-164.5A106.57,106.57,0,0,0,425.3,291.2Z"/><path class="cls-1" d="M114.39,122.57L100.9,109.38A208.21,208.21,0,0,1,397,107.68L383.7,121A189.34,189.34,0,0,0,114.39,122.57Z"/><path class="cls-1" d="M175,435.7C105.13,316.22,46.65,294.46,46.07,294.25l6.11-17.85c2.63,0.88,65.07,23.19,139.11,149.77Z"/><path class="cls-1" d="M328.92,435.7l-16.29-9.53c74-126.58,136.49-148.89,139.11-149.77l6,17.87-3-8.94,3.09,8.92C457.27,294.46,398.8,316.22,328.92,435.7Z"/><path class="cls-1" d="M356.79,163.06a9.46,9.46,0,0,1-5.2-1.56,184.43,184.43,0,0,0-200.47-1.58A9.43,9.43,0,1,1,141,144a203.36,203.36,0,0,1,221,1.72A9.44,9.44,0,0,1,356.79,163.06Z"/><path class="cls-1" d="M313.69,215.21a9.46,9.46,0,0,1-5.2-1.56,105.24,105.24,0,0,0-114.28-.94,9.44,9.44,0,0,1-10.13-15.92,124.15,124.15,0,0,1,134.8,1.11A9.44,9.44,0,0,1,313.69,215.21Z"/></svg>